<svg width="56" height="56" viewBox="0 0 56 56" fill="none" xmlns="http://www.w3.org/2000/svg">
    <path
        d="M21.463 49L17.8106 41.7241C16.7402 42.0082 15.6492 41.7575 14.9461 41.0577C14.2185 40.3261 13.9932 39.2534 14.2772 38.191L7.00018 34.5403L10.2312 31.3079L17.8479 32.0212L24.5735 24.3605L7.1327 13.9125L12.3435 8.70193L32.9193 15.881L39.9258 8.87411C41.0652 7.73552 42.8902 7 44.5772 7C45.8832 7 46.9941 7.41973 47.7884 8.21396C49.8142 10.2396 49.0977 14.1029 47.1298 16.0746L40.1194 23.0823L47.2996 43.657L42.0896 48.8691L31.6418 31.43L23.9823 38.1552L24.6941 45.7715L21.463 49ZM32.2171 27.7572L42.5625 45.028L44.5589 43.0309L37.3787 22.4554L45.4452 14.3925C46.5688 13.2666 47.0909 10.8839 46.1046 9.89685C45.6777 9.46998 45.0374 9.38032 44.5764 9.38032C43.5044 9.38032 42.3118 9.85321 41.608 10.557L33.5446 18.6207L12.9696 11.4417L10.9724 13.4388L28.2449 23.786L18.8342 34.5046L11.1231 33.7834L11.0144 33.8921L17.5829 37.1865L16.8116 38.3116C16.5093 38.7535 16.4728 39.2185 16.6299 39.3756C16.7029 39.4478 16.8322 39.4636 16.9275 39.4636C17.1623 39.4636 17.4416 39.3652 17.694 39.1931L18.8183 38.425L22.1121 44.9868L22.2216 44.8781L21.5003 37.1674L32.2171 27.7572Z"
        fill="#0B0B0B" stroke="#0B0B0B" />
</svg>