<svg viewBox="0 0 56 56" stroke="currentColor" className="w-6 h-6" fill="currentColor"
    xmlns="http://www.w3.org/2000/svg">
    <path
        d="M52.3157 9.33325H19.5494V15.286H6.18544L0 25.7988V41.144H4.941C5.34839 42.7233 6.27675 44.1235 7.57946 45.1236C8.88218 46.1237 10.485 46.6666 12.1349 46.6666C13.7847 46.6666 15.3876 46.1237 16.6903 45.1236C17.993 44.1235 18.9213 42.7233 19.3287 41.144H36.0215C36.4289 42.7233 37.3572 44.1235 38.6599 45.1236C39.9626 46.1237 41.5655 46.6666 43.2153 46.6666C44.8652 46.6666 46.468 46.1237 47.7707 45.1236C49.0734 44.1235 50.0018 42.7233 50.4092 41.144H56V9.33325H52.3218H52.3157ZM8.30651 18.9195H19.5494V24.5634H4.99004L8.30651 18.9195ZM3.67816 28.1787H19.5494V37.5105H19.3287C18.9213 35.9312 17.993 34.5309 16.6903 33.5309C15.3876 32.5308 13.7847 31.9879 12.1349 31.9879C10.485 31.9879 8.88218 32.5308 7.57946 33.5309C6.27675 34.5309 5.34839 35.9312 4.941 37.5105H3.67816V28.1787ZM12.1379 43.0333C11.3944 43.0333 10.6677 42.8155 10.0495 42.4073C9.43144 41.9991 8.94979 41.419 8.66554 40.7404C8.3813 40.0617 8.30724 39.315 8.45274 38.5947C8.59823 37.8745 8.95674 37.2131 9.4829 36.6941C10.0091 36.1752 10.6792 35.8222 11.4086 35.6796C12.1379 35.5371 12.8937 35.6114 13.5803 35.8933C14.2668 36.1752 14.8533 36.652 15.2655 37.2632C15.6776 37.8745 15.897 38.5928 15.8958 39.3272C15.8958 40.3118 15.4999 41.256 14.7951 41.9521C14.0904 42.6483 13.1346 43.0394 12.1379 43.0394V43.0333ZM43.2123 43.0333C42.4688 43.0333 41.742 42.8155 41.1239 42.4073C40.5058 41.9991 40.0241 41.419 39.7399 40.7404C39.4556 40.0617 39.3816 39.315 39.5271 38.5947C39.6726 37.8745 40.0311 37.2131 40.5572 36.6941C41.0834 36.1752 41.7536 35.8222 42.4829 35.6796C43.2123 35.5371 43.968 35.6114 44.6546 35.8933C45.3411 36.1752 45.9276 36.652 46.3398 37.2632C46.752 37.8745 46.9713 38.5928 46.9701 39.3272C46.9701 40.3118 46.5742 41.256 45.8695 41.9521C45.1647 42.6483 44.2089 43.0394 43.2123 43.0394V43.0333ZM50.4031 37.5105C49.9957 35.9312 49.0673 34.5309 47.7646 33.5309C46.4619 32.5308 44.859 31.9879 43.2092 31.9879C41.5593 31.9879 39.9565 32.5308 38.6538 33.5309C37.3511 34.5309 36.4227 35.9312 36.0153 37.5105H23.2276V12.9667H52.3157V37.5105H50.4031Z" />
    <path d="M46.51 22.8562H27.3039V26.4896H46.51V22.8562Z" />
    <path d="M33.6364 28.9114H27.3039V32.5448H33.6364V28.9114Z" />
    <path d="M40.3797 16.7993H27.3039V20.4327H40.3797V16.7993Z" />
</svg>