<svg width="56" height="56" viewBox="0 0 56 56" fill="none" xmlns="http://www.w3.org/2000/svg">
<path d="M44.3333 7H11.6666V39.9897H14.77L11.8095 47.4742L15.607 49L16.73 46.1753H39.1883L40.3112 49L44.1087 47.4742L41.23 39.9897H44.3333V7ZM40.25 11.1237V13.1856H15.75V11.1237H40.25ZM15.75 27.6186H40.25V35.866H15.75V27.6186ZM15.75 23.4948V17.3093H40.25V23.4948H15.75ZM37.6366 42.0515H18.3633L19.18 39.9897H36.8404L37.6366 42.0515Z" fill="#0B0B0B"/>
<path d="M21.875 29.6804H17.7916V33.8041H21.875V29.6804Z" fill="#0B0B0B"/>
<path d="M38.2083 29.6804H34.125V33.8041H38.2083V29.6804Z" fill="#0B0B0B"/>
</svg>
