<svg width="56" height="56" viewBox="0 0 56 56" fill="none" xmlns="http://www.w3.org/2000/svg">
<path d="M41.3587 23.3326V13.9997H45.8117V9.33322H30.2264V4.66675H25.7735V9.33322H10.1883V13.9997H14.6412V23.3326H4.66663L12.9713 45.0784L12.6819 44.8451C10.7998 42.9988 8.31329 41.9799 5.73533 41.9985V46.665C6.51059 46.6582 7.27914 46.816 7.99468 47.1287C8.71022 47.4415 9.35794 47.9028 9.89881 48.4849C11.7943 50.3165 14.2782 51.3334 16.8565 51.3334C19.4348 51.3334 21.9187 50.3165 23.8142 48.4849C24.3607 47.9072 25.0109 47.4486 25.7275 47.1356C26.444 46.8226 27.2126 46.6615 27.9888 46.6615C28.7651 46.6615 29.5337 46.8226 30.2502 47.1356C30.9667 47.4486 31.617 47.9072 32.1634 48.4849C34.0613 50.3115 36.5443 51.325 39.1211 51.325C41.698 51.325 44.1809 50.3115 46.0788 48.4849C46.6231 47.9011 47.2746 47.4388 47.994 47.126C48.7134 46.8132 49.4858 46.6564 50.2646 46.665V41.9985C47.6794 41.9763 45.1847 42.9953 43.2958 44.8451L43.0286 45.0551L51.3333 23.3326H41.3587ZM19.0941 13.9997H36.9058V23.3326H19.0941V13.9997ZM21.0311 44.8451C20.2585 45.6025 19.3287 46.1616 18.3148 46.4783L11.257 27.9991H25.7735V42.2319C24.008 42.6706 22.3768 43.5695 21.0311 44.8451ZM30.2264 42.2319V27.9991H44.743L37.6851 46.5017C36.6609 46.1822 35.7228 45.6147 34.9465 44.8451C33.6067 43.5737 31.9837 42.6752 30.2264 42.2319Z" fill="#0B0B0B"/>
</svg>
