<svg xmlns="http://www.w3.org/2000/svg" viewBox="0 0 691.02 152.54">
    <defs>
        <style>
            .prefix__cls-1 {
                fill: #ee2e31
            }

            .prefix__cls-2 {
                fill: #004f98
            }
        </style>
    </defs>
    <g id="prefix__Layer_2" data-name="Layer 2">
        <g id="prefix__Layer_1-2" data-name="Layer 1">
            <path class="prefix__cls-1"
                d="M128.81 144.06l.25-134.82a1.27 1.27 0 00-.78-1.19L113.44 3a1.22 1.22 0 00-1.64 1.19v145.13a1.22 1.22 0 001.64 1.19l14.56-5.26a1.26 1.26 0 00.81-1.19zm22.61-8.13V17.31a1.27 1.27 0 00-.81-1.14l-10.75-3.7a1.45 1.45 0 00-2.1 1.13l-.14 126.26a1.46 1.46 0 002.1 1.14l10.89-3.93a1.26 1.26 0 00.81-1.14zm20.58-7.21l.05-104.08a1.26 1.26 0 00-.82-1.12l-9.08-3.14A1.5 1.5 0 00160 21.5V132a1.5 1.5 0 002.18 1.13l9-3.24a1.27 1.27 0 00.82-1.17zm35-12.36l.1-79.24a1 1 0 00-.53-.87l-6.21-2.14A1 1 0 00199 35l.23 83.51a1 1 0 001.4.86l5.88-2.12a1 1 0 00.49-.89zm-16.78 5.74l.19-91a1.27 1.27 0 00-.77-1.1l-6.19-2.14c-1-.48-2.29.13-2.29 1.1l-.57 95.46c0 1 1.27 1.58 2.29 1.1l6.56-2.36a1.24 1.24 0 00.79-1.06zm32.06-11.55l.25-67.79a1.09 1.09 0 00-.55-1l-4.46-1.54a1 1 0 00-1.4 1l-.47 71a1 1 0 001.41 1l4.67-1.7a1.12 1.12 0 00.56-.97zm12.6-4.38v-59a1.25 1.25 0 00-.62-1.09l-2.66-.85a1.2 1.2 0 00-1.78 1.08v60.82a1.2 1.2 0 001.78 1.08l2.66-1a1.25 1.25 0 00.63-1.04zM95.45 152.47l-90.8-13.68A5.28 5.28 0 010 133.7V19.77a5.28 5.28 0 014.65-5.1L95.45 1a5.42 5.42 0 016.41 5.09v141.28a5.43 5.43 0 01-6.41 5.1z" />
            <path class="prefix__cls-2"
                d="M309.45 1l3.78 35.17h-12.55l-.77-25.1-4.85 25.1h-12.69l-4.94-24.9-.73 24.9h-12.55L267.93 1h16.47l4.22 22.91L292.3 1zM345.79 1h12v19.25A16 16 0 01352.93 32q-4.77 4.65-16.06 4.65t-15.65-4.43q-4.22-4.4-4.12-11.63V1h12v18.81a15.58 15.58 0 00.31 3.47 4.4 4.4 0 002 2.49q1.71 1.17 5.55 1.17c2.77 0 4.81-.4 6.1-1.19a4.6 4.6 0 002.3-2.64 15.86 15.86 0 00.37-3.73zM373.5 26.4q14-.09 23.25-.48a25.35 25.35 0 00-.77 4.75q-.15 2.28-.15 5.52h-34.15q.38-9.4.38-17.59c0-5.45-.13-11.32-.38-17.58h11.82zM436 11.19q-7.62-.24-14.78-.29v25.29h-12.16V10.9c-4.82 0-9.72.13-14.73.29V1H436zM468 10.66c-3.84-.2-6.69-.31-8.53-.34v16.57c1.88 0 4.72-.15 8.53-.34v9.64h-28.18v-9.64c3.71.19 6.54.31 8.48.34V10.32q-2.91 0-8.48.34V1H468zM517.14 1l3.78 35.17h-12.55l-.77-25.1-4.85 25.1h-12.69l-4.94-24.9-.73 24.9h-12.54L475.62 1h16.48l4.21 22.91L500 1zM529.06 31.85q-5.23-4.82-5.23-13.54T529 4.84Q534.25 0 545.39 0t16.4 4.84Q567 9.69 567 18.31q0 8.78-5.19 13.57t-16.42 4.79q-11.1 0-16.33-4.82zm24.08-7.12q2.37-2.06 2.37-6.42T553.14 12c-1.58-1.39-4.17-2.09-7.75-2.09s-6.12.7-7.7 2.09-2.38 3.5-2.38 6.34.79 5 2.38 6.4 4.14 2.08 7.7 2.08 6.17-.71 7.75-2.09zM600.76 2.69q5.28 2.2 7.39 6.1a19.85 19.85 0 012.11 9.57 17.9 17.9 0 01-2.42 9.4 15.89 15.89 0 01-7.27 6.24 28.71 28.71 0 01-11.92 2.2h-17.77q.39-9.54.39-17.78T570.87 1q5.76-.48 15.5-.49 9.12-.03 14.39 2.18zM590 26.55q4.5 0 6-2.18a10.48 10.48 0 001.5-6 10.29 10.29 0 00-1.58-6c-1.05-1.52-3-2.27-5.93-2.27a60.47 60.47 0 00-7 .29v16.16zM641.8 36.19q-.93-2.76-2.47-6.93h-15.46l-2.42 6.93h-12.16L622.85 1h17.83l13.67 35.17zm-5.23-14.49q-1.85-5.09-3.78-10.17l-1.17-3.15q-1.7 4.41-5 13.32zM667.77 26.4q14-.09 23.25-.48a25.35 25.35 0 00-.77 4.75q-.15 2.28-.15 5.52h-34.16q.39-9.4.39-17.59c0-5.45-.13-11.32-.39-17.58h11.83zM276 84.54q14.05-.09 23.26-.48a26.14 26.14 0 00-.78 4.74c-.09 1.52-.14 3.36-.14 5.53h-34.19q.39-9.4.39-17.59t-.39-17.59H276zM305.91 90q-5.22-4.81-5.23-13.54T305.89 63q5.21-4.84 16.35-4.84t16.4 4.84q5.21 4.84 5.21 13.47T338.66 90q-5.18 4.78-16.42 4.79T305.91 90zM330 82.87c1.58-1.37 2.38-3.51 2.38-6.42s-.8-5-2.38-6.35-4.17-2.1-7.76-2.1-6.12.69-7.7 2.08-2.38 3.51-2.38 6.35.79 5 2.38 6.4 4.15 2.08 7.7 2.08 6.17-.67 7.76-2.04zM367.68 74.27h20.69v20.06h-8.53l-1-8.58a11.69 11.69 0 01-5.19 6.83 17.43 17.43 0 01-9.11 2.23 17.07 17.07 0 01-8.69-2.18 15.24 15.24 0 01-6-6.25 20 20 0 01-2.16-9.49q0-8.69 5.19-13.71t16.13-5a27.81 27.81 0 0111 2 20.43 20.43 0 018.12 6.3q-2.19 1.11-8.53 4.46l-1.21.68a12.26 12.26 0 00-4.39-2.85 15.06 15.06 0 00-5.33-.94q-4.65 0-6.93 2.44a8.5 8.5 0 00-2.27 6 8.3 8.3 0 002.44 6.25q2.44 2.39 7.49 2.38a14.47 14.47 0 004.24-.63 7.62 7.62 0 003.46-2.18h-9.45zM420.39 68.8q-5.76-.3-8.52-.34V85q2.81 0 8.52-.33v9.64h-28.14v-9.62c3.71.19 6.54.3 8.47.33V68.46c-1.93 0-4.76.14-8.47.34v-9.65h28.14zM427 85.56a43.16 43.16 0 002.1-4.94 30.81 30.81 0 008 3.1 35.88 35.88 0 008.48 1.11 15.87 15.87 0 005.66-.7q1.65-.7 1.65-1.53 0-3-9-2.95-9.88 0-14.34-2.06a6.91 6.91 0 01-4.46-6.66 10.33 10.33 0 015.43-9.64q5.43-3.1 14.1-3.1A43.66 43.66 0 01455 59.47a42.19 42.19 0 019.53 3.53c-.94 2.13-1.92 4.73-3 7.8-.19.65-.35 1.13-.48 1.45a20.63 20.63 0 00-7.46-3.31 34.72 34.72 0 00-8.82-1.34 20.71 20.71 0 00-6.2.61c-1.07.4-1.6 1-1.6 1.77s.74 1.4 2.21 1.86a22 22 0 006.37.71q10.26 0 14.92 2.35a7.62 7.62 0 014.65 7.19q0 6.78-4.94 9.76t-15 3a51.83 51.83 0 01-10.95-1.19 40.28 40.28 0 01-10-3.46 47.63 47.63 0 002.77-4.64zM508.71 69.33q-7.6-.24-14.77-.29v25.29h-12.11V69q-7.23 0-14.73.29V59.15h41.61zM540.74 68.8q-5.78-.3-8.53-.34V85c1.87 0 4.72-.14 8.53-.33v9.64h-28.15v-9.62q5.56.28 8.48.33V68.46q-2.91 0-8.48.34v-9.65h28.15zM549.8 90.16q-5.19-4.65-5.19-13.27t5.19-13.71q5.18-5 16.13-5 15.32 0 20.49 10.51a80 80 0 00-10.22 4.51 8.71 8.71 0 00-4.43-4 15.48 15.48 0 00-6.18-1.3q-4.65 0-6.93 2.44a9.29 9.29 0 00.17 12.36q2.45 2.45 7.49 2.44a13 13 0 006.39-1.33 7.88 7.88 0 003.49-4.24q4 2.13 10.17 4.8a14.39 14.39 0 01-8.09 8.19 32.18 32.18 0 01-12.35 2.32q-10.93-.07-16.13-4.72zM593 85.56a43.16 43.16 0 002.1-4.94 30.81 30.81 0 008 3.1 35.88 35.88 0 008.48 1.11 15.87 15.87 0 005.66-.7q1.65-.7 1.65-1.53 0-3-9-2.95-9.88 0-14.34-2.06a6.91 6.91 0 01-4.46-6.66 10.33 10.33 0 015.43-9.64q5.41-3.1 14.1-3.1A43.72 43.72 0 01621 59.47a42.19 42.19 0 019.56 3.53c-.94 2.13-1.92 4.73-3 7.8-.19.65-.35 1.13-.48 1.45a20.63 20.63 0 00-7.46-3.31 34.72 34.72 0 00-8.82-1.34 20.66 20.66 0 00-6.2.61c-1.07.4-1.6 1-1.6 1.77s.73 1.4 2.2 1.86a22.09 22.09 0 006.38.71q10.26 0 14.92 2.35a7.62 7.62 0 014.65 7.19q0 6.78-4.94 9.76t-15 3a51.83 51.83 0 01-10.95-1.19 40.28 40.28 0 01-10-3.46 47.63 47.63 0 002.74-4.64zM305.77 127.46q-7.61-.24-14.78-.29v25.29h-12.11v-25.29q-7.22.06-14.73.29v-10.17h41.62zM346.49 136.14c-1.38 1.93-3.72 3.34-7.05 4.21a11.31 11.31 0 01.82 1.21l7.85 10.9h-13.18q-2.13-4-6.73-11.24h-7.12v11.24h-11.44q.39-9.39.39-17.58t-.39-17.59H331q9.78 0 13.66 3.15a10.42 10.42 0 013.88 8.53 12 12 0 01-2.05 7.17zm-25.41-9.5v5.52h6.54a53.42 53.42 0 006.22-.26 6.87 6.87 0 002.93-.85 2 2 0 00.83-1.7 1.91 1.91 0 00-.78-1.64 6.39 6.39 0 00-2.9-.83 61.29 61.29 0 00-6.3-.24z" />
            <path class="prefix__cls-2"
                d="M380.09 152.46q-.93-2.76-2.47-6.92h-15.46l-2.42 6.92h-12.16l13.56-35.17H379l13.66 35.17zM374.85 138q-1.83-5.08-3.78-10.18l-1.16-3.15q-1.7 4.41-5 13.33zM424.13 119q5.28 2.21 7.38 6.11a19.85 19.85 0 012.11 9.57 17.88 17.88 0 01-2.42 9.32 15.83 15.83 0 01-7.27 6.23 28.71 28.71 0 01-11.92 2.2h-17.77q.39-9.55.39-17.78t-.39-17.4c3.85-.32 9-.48 15.51-.48q9.1-.01 14.38 2.23zm-10.76 23.86c3 0 5-.72 6-2.18a10.44 10.44 0 001.5-6 10.25 10.25 0 00-1.58-6c-1.05-1.52-3-2.28-5.93-2.28a62.75 62.75 0 00-7 .29v16.13zM448.93 143.6q18.4-.1 26.69-.53a31.65 31.65 0 00-.41 4.09c0 1.4-.07 3.17-.07 5.3H437.5q.38-9.39.38-17.58t-.38-17.59h37.64v8.77h-26.21v4.65h6.88q7.69 0 15.94-.29v8.33q-8.24-.28-15.94-.29-4.56 0-6.88.05z" />
        </g>
    </g>
</svg>